<mxfile host="app.diagrams.net" modified="2023-10-12T22:05:21.547Z" agent="Mozilla/5.0 (Macintosh; Intel Mac OS X 10_15_7) AppleWebKit/537.36 (KHTML, like Gecko) Chrome/115.0.0.0 Safari/537.36 Edg/115.0.1901.200" etag="KQ5ymmKwrwvomyrMwA19" version="22.0.4" type="device">
  <diagram name="Page-1" id="GMABGwnCSBsfWNa9dCOa">
    <mxGraphModel dx="1450" dy="803" grid="1" gridSize="10" guides="1" tooltips="1" connect="1" arrows="1" fold="1" page="1" pageScale="1" pageWidth="850" pageHeight="1100" math="0" shadow="0">
      <root>
        <mxCell id="0" />
        <mxCell id="1" parent="0" />
        <mxCell id="2fA8HRpgyradCphYkHQK-1" value="IClonacion&lt;br&gt;&amp;lt;&amp;lt;interface&amp;gt;&amp;gt;" style="swimlane;fontStyle=1;align=center;verticalAlign=top;childLayout=stackLayout;horizontal=1;startSize=40;horizontalStack=0;resizeParent=1;resizeParentMax=0;resizeLast=0;collapsible=1;marginBottom=0;whiteSpace=wrap;html=1;" vertex="1" parent="1">
          <mxGeometry x="340" y="50" width="160" height="90" as="geometry">
            <mxRectangle x="260" y="50" width="100" height="40" as="alternateBounds" />
          </mxGeometry>
        </mxCell>
        <mxCell id="2fA8HRpgyradCphYkHQK-3" value="" style="line;strokeWidth=1;fillColor=none;align=left;verticalAlign=middle;spacingTop=-1;spacingLeft=3;spacingRight=3;rotatable=0;labelPosition=right;points=[];portConstraint=eastwest;strokeColor=inherit;" vertex="1" parent="2fA8HRpgyradCphYkHQK-1">
          <mxGeometry y="40" width="160" height="8" as="geometry" />
        </mxCell>
        <mxCell id="2fA8HRpgyradCphYkHQK-4" value="+ Clone(): Prototype" style="text;strokeColor=none;fillColor=none;align=left;verticalAlign=top;spacingLeft=4;spacingRight=4;overflow=hidden;rotatable=0;points=[[0,0.5],[1,0.5]];portConstraint=eastwest;whiteSpace=wrap;html=1;" vertex="1" parent="2fA8HRpgyradCphYkHQK-1">
          <mxGeometry y="48" width="160" height="42" as="geometry" />
        </mxCell>
        <mxCell id="2fA8HRpgyradCphYkHQK-5" value="Heroe" style="swimlane;fontStyle=1;align=center;verticalAlign=top;childLayout=stackLayout;horizontal=1;startSize=26;horizontalStack=0;resizeParent=1;resizeParentMax=0;resizeLast=0;collapsible=1;marginBottom=0;whiteSpace=wrap;html=1;" vertex="1" parent="1">
          <mxGeometry x="305" y="199" width="230" height="190" as="geometry" />
        </mxCell>
        <mxCell id="2fA8HRpgyradCphYkHQK-6" value="+ Nombre: string&lt;br&gt;+ AspectoVisual: string&lt;br&gt;+ Nivel: int&lt;br&gt;+ Experiencia: int&lt;br&gt;+ Habilidades: Dictionary&amp;lt;string, int&amp;gt;" style="text;strokeColor=none;fillColor=none;align=left;verticalAlign=top;spacingLeft=4;spacingRight=4;overflow=hidden;rotatable=0;points=[[0,0.5],[1,0.5]];portConstraint=eastwest;whiteSpace=wrap;html=1;" vertex="1" parent="2fA8HRpgyradCphYkHQK-5">
          <mxGeometry y="26" width="230" height="104" as="geometry" />
        </mxCell>
        <mxCell id="2fA8HRpgyradCphYkHQK-7" value="" style="line;strokeWidth=1;fillColor=none;align=left;verticalAlign=middle;spacingTop=-1;spacingLeft=3;spacingRight=3;rotatable=0;labelPosition=right;points=[];portConstraint=eastwest;strokeColor=inherit;" vertex="1" parent="2fA8HRpgyradCphYkHQK-5">
          <mxGeometry y="130" width="230" height="8" as="geometry" />
        </mxCell>
        <mxCell id="2fA8HRpgyradCphYkHQK-8" value="+ Clone(): Prototype&lt;br&gt;+ Personalizar(string,string)" style="text;strokeColor=none;fillColor=none;align=left;verticalAlign=top;spacingLeft=4;spacingRight=4;overflow=hidden;rotatable=0;points=[[0,0.5],[1,0.5]];portConstraint=eastwest;whiteSpace=wrap;html=1;" vertex="1" parent="2fA8HRpgyradCphYkHQK-5">
          <mxGeometry y="138" width="230" height="52" as="geometry" />
        </mxCell>
        <mxCell id="2fA8HRpgyradCphYkHQK-20" style="edgeStyle=orthogonalEdgeStyle;rounded=0;orthogonalLoop=1;jettySize=auto;html=1;exitX=0.5;exitY=0;exitDx=0;exitDy=0;entryX=0.204;entryY=1;entryDx=0;entryDy=0;entryPerimeter=0;" edge="1" parent="1" source="2fA8HRpgyradCphYkHQK-27" target="2fA8HRpgyradCphYkHQK-8">
          <mxGeometry relative="1" as="geometry">
            <mxPoint x="180" y="550" as="sourcePoint" />
          </mxGeometry>
        </mxCell>
        <mxCell id="2fA8HRpgyradCphYkHQK-21" value="" style="endArrow=block;dashed=1;endFill=0;endSize=12;html=1;rounded=0;exitX=0.5;exitY=0;exitDx=0;exitDy=0;entryX=0.5;entryY=1;entryDx=0;entryDy=0;entryPerimeter=0;" edge="1" parent="1" source="2fA8HRpgyradCphYkHQK-5" target="2fA8HRpgyradCphYkHQK-4">
          <mxGeometry width="160" relative="1" as="geometry">
            <mxPoint x="480" y="210" as="sourcePoint" />
            <mxPoint x="420" y="180" as="targetPoint" />
          </mxGeometry>
        </mxCell>
        <mxCell id="2fA8HRpgyradCphYkHQK-26" value="" style="html=1;verticalAlign=bottom;endArrow=block;curved=0;rounded=0;exitX=0.5;exitY=0;exitDx=0;exitDy=0;entryX=0.522;entryY=1.014;entryDx=0;entryDy=0;entryPerimeter=0;" edge="1" parent="1" target="2fA8HRpgyradCphYkHQK-8">
          <mxGeometry width="80" relative="1" as="geometry">
            <mxPoint x="425" y="550" as="sourcePoint" />
            <mxPoint x="490" y="470" as="targetPoint" />
          </mxGeometry>
        </mxCell>
        <mxCell id="2fA8HRpgyradCphYkHQK-27" value="Arquero" style="swimlane;fontStyle=1;align=center;verticalAlign=top;childLayout=stackLayout;horizontal=1;startSize=26;horizontalStack=0;resizeParent=1;resizeParentMax=0;resizeLast=0;collapsible=1;marginBottom=0;whiteSpace=wrap;html=1;" vertex="1" parent="1">
          <mxGeometry x="56" y="550" width="230" height="190" as="geometry" />
        </mxCell>
        <mxCell id="2fA8HRpgyradCphYkHQK-28" value="+ Nombre: string&lt;br&gt;+ AspectoVisual: string&lt;br&gt;+ Nivel: int&lt;br&gt;+ Experiencia: int&lt;br&gt;+ Habilidades: Dictionary&amp;lt;string, int&amp;gt;" style="text;strokeColor=none;fillColor=none;align=left;verticalAlign=top;spacingLeft=4;spacingRight=4;overflow=hidden;rotatable=0;points=[[0,0.5],[1,0.5]];portConstraint=eastwest;whiteSpace=wrap;html=1;" vertex="1" parent="2fA8HRpgyradCphYkHQK-27">
          <mxGeometry y="26" width="230" height="104" as="geometry" />
        </mxCell>
        <mxCell id="2fA8HRpgyradCphYkHQK-29" value="" style="line;strokeWidth=1;fillColor=none;align=left;verticalAlign=middle;spacingTop=-1;spacingLeft=3;spacingRight=3;rotatable=0;labelPosition=right;points=[];portConstraint=eastwest;strokeColor=inherit;" vertex="1" parent="2fA8HRpgyradCphYkHQK-27">
          <mxGeometry y="130" width="230" height="8" as="geometry" />
        </mxCell>
        <mxCell id="2fA8HRpgyradCphYkHQK-30" value="+ Clone(): Prototype&lt;br&gt;+ Personalizar(string,string)" style="text;strokeColor=none;fillColor=none;align=left;verticalAlign=top;spacingLeft=4;spacingRight=4;overflow=hidden;rotatable=0;points=[[0,0.5],[1,0.5]];portConstraint=eastwest;whiteSpace=wrap;html=1;" vertex="1" parent="2fA8HRpgyradCphYkHQK-27">
          <mxGeometry y="138" width="230" height="52" as="geometry" />
        </mxCell>
        <mxCell id="2fA8HRpgyradCphYkHQK-31" style="edgeStyle=orthogonalEdgeStyle;rounded=0;orthogonalLoop=1;jettySize=auto;html=1;exitX=0.5;exitY=0;exitDx=0;exitDy=0;entryX=0.752;entryY=0.981;entryDx=0;entryDy=0;entryPerimeter=0;" edge="1" parent="1" source="2fA8HRpgyradCphYkHQK-36" target="2fA8HRpgyradCphYkHQK-8">
          <mxGeometry relative="1" as="geometry">
            <mxPoint x="550" y="481" as="sourcePoint" />
            <mxPoint x="722" y="320" as="targetPoint" />
          </mxGeometry>
        </mxCell>
        <mxCell id="2fA8HRpgyradCphYkHQK-32" value="Guerrero" style="swimlane;fontStyle=1;align=center;verticalAlign=top;childLayout=stackLayout;horizontal=1;startSize=26;horizontalStack=0;resizeParent=1;resizeParentMax=0;resizeLast=0;collapsible=1;marginBottom=0;whiteSpace=wrap;html=1;" vertex="1" parent="1">
          <mxGeometry x="310" y="550" width="230" height="190" as="geometry" />
        </mxCell>
        <mxCell id="2fA8HRpgyradCphYkHQK-33" value="+ Nombre: string&lt;br&gt;+ AspectoVisual: string&lt;br&gt;+ Nivel: int&lt;br&gt;+ Experiencia: int&lt;br&gt;+ Habilidades: Dictionary&amp;lt;string, int&amp;gt;" style="text;strokeColor=none;fillColor=none;align=left;verticalAlign=top;spacingLeft=4;spacingRight=4;overflow=hidden;rotatable=0;points=[[0,0.5],[1,0.5]];portConstraint=eastwest;whiteSpace=wrap;html=1;" vertex="1" parent="2fA8HRpgyradCphYkHQK-32">
          <mxGeometry y="26" width="230" height="104" as="geometry" />
        </mxCell>
        <mxCell id="2fA8HRpgyradCphYkHQK-34" value="" style="line;strokeWidth=1;fillColor=none;align=left;verticalAlign=middle;spacingTop=-1;spacingLeft=3;spacingRight=3;rotatable=0;labelPosition=right;points=[];portConstraint=eastwest;strokeColor=inherit;" vertex="1" parent="2fA8HRpgyradCphYkHQK-32">
          <mxGeometry y="130" width="230" height="8" as="geometry" />
        </mxCell>
        <mxCell id="2fA8HRpgyradCphYkHQK-35" value="+ Clone(): Prototype&lt;br&gt;+ Personalizar(string,string)" style="text;strokeColor=none;fillColor=none;align=left;verticalAlign=top;spacingLeft=4;spacingRight=4;overflow=hidden;rotatable=0;points=[[0,0.5],[1,0.5]];portConstraint=eastwest;whiteSpace=wrap;html=1;" vertex="1" parent="2fA8HRpgyradCphYkHQK-32">
          <mxGeometry y="138" width="230" height="52" as="geometry" />
        </mxCell>
        <mxCell id="2fA8HRpgyradCphYkHQK-36" value="Mago&lt;br&gt;" style="swimlane;fontStyle=1;align=center;verticalAlign=top;childLayout=stackLayout;horizontal=1;startSize=26;horizontalStack=0;resizeParent=1;resizeParentMax=0;resizeLast=0;collapsible=1;marginBottom=0;whiteSpace=wrap;html=1;" vertex="1" parent="1">
          <mxGeometry x="570" y="550" width="230" height="190" as="geometry" />
        </mxCell>
        <mxCell id="2fA8HRpgyradCphYkHQK-37" value="+ Nombre: string&lt;br&gt;+ AspectoVisual: string&lt;br&gt;+ Nivel: int&lt;br&gt;+ Experiencia: int&lt;br&gt;+ Habilidades: Dictionary&amp;lt;string, int&amp;gt;" style="text;strokeColor=none;fillColor=none;align=left;verticalAlign=top;spacingLeft=4;spacingRight=4;overflow=hidden;rotatable=0;points=[[0,0.5],[1,0.5]];portConstraint=eastwest;whiteSpace=wrap;html=1;" vertex="1" parent="2fA8HRpgyradCphYkHQK-36">
          <mxGeometry y="26" width="230" height="104" as="geometry" />
        </mxCell>
        <mxCell id="2fA8HRpgyradCphYkHQK-38" value="" style="line;strokeWidth=1;fillColor=none;align=left;verticalAlign=middle;spacingTop=-1;spacingLeft=3;spacingRight=3;rotatable=0;labelPosition=right;points=[];portConstraint=eastwest;strokeColor=inherit;" vertex="1" parent="2fA8HRpgyradCphYkHQK-36">
          <mxGeometry y="130" width="230" height="8" as="geometry" />
        </mxCell>
        <mxCell id="2fA8HRpgyradCphYkHQK-39" value="+ Clone(): Prototype&lt;br&gt;+ Personalizar(string,string)" style="text;strokeColor=none;fillColor=none;align=left;verticalAlign=top;spacingLeft=4;spacingRight=4;overflow=hidden;rotatable=0;points=[[0,0.5],[1,0.5]];portConstraint=eastwest;whiteSpace=wrap;html=1;" vertex="1" parent="2fA8HRpgyradCphYkHQK-36">
          <mxGeometry y="138" width="230" height="52" as="geometry" />
        </mxCell>
      </root>
    </mxGraphModel>
  </diagram>
</mxfile>
